<svg width="17" height="36" viewBox="0 0 17 36" fill="none" xmlns="http://www.w3.org/2000/svg">
<path d="M4.29949 31.4927H14.6595C15.8798 31.4927 16.7594 32.1385 16.7594 33.5292C16.7594 34.9199 15.8798 35.5687 14.6595 35.5687H2.29692C0.685259 35.5687 0 34.5219 0 33.1792V2.57397C0 1.23434 0.685259 0.1875 2.29692 0.1875H14.6595C15.8798 0.1875 16.7594 0.836373 16.7594 2.22401C16.7594 3.61775 15.8798 4.26663 14.6595 4.26663H4.29949V15.8399H13.7305C14.9508 15.8399 15.83 16.4892 15.83 17.8768C15.83 19.2701 14.9508 19.9133 13.7305 19.9133H4.29949V31.4927Z" fill="#5F6EB3"/>
</svg>
