<svg width="1200" height="70" viewBox="0 0 1200 70" fill="none" xmlns="http://www.w3.org/2000/svg">
<path d="M17.4872 53.472C17.4872 56.6277 16.7877 59.0238 15.3888 60.6601C14.0481 62.2964 11.833 63.1145 8.74362 63.1145C5.65421 63.1145 3.41001 62.2964 2.01103 60.6601C0.670344 59.0238 0 56.6277 0 53.472V9.55484C0 6.39911 0.670344 4.03232 2.01103 2.45445C3.41001 0.818151 5.65421 0 8.74362 0C11.833 0 14.0481 0.818151 15.3888 2.45445C16.7877 4.03232 17.4872 6.39911 17.4872 9.55484V18.4084H13.9898V9.55484C13.9898 7.50946 13.5818 5.96081 12.7657 4.90891C11.9496 3.857 10.6089 3.33104 8.74362 3.33104C6.87831 3.33104 5.53762 3.857 4.72155 4.90891C3.90548 5.96081 3.49745 7.50946 3.49745 9.55484V53.472C3.49745 55.5174 3.90548 57.0953 4.72155 58.2056C5.53762 59.2575 6.87831 59.7835 8.74362 59.7835C10.6089 59.7835 11.9496 59.2575 12.7657 58.2056C13.5818 57.0953 13.9898 55.5174 13.9898 53.472V44.7061H17.4872V53.472Z" fill="#707070"/>
<path d="M37.1481 50.7546H25.8688L24.295 62.2379H20.7101L29.8034 0.788932H33.3009L42.3943 62.2379H38.8094L37.1481 50.7546ZM26.3934 47.4235H36.7109L34.1752 29.6288L31.5522 9.02888L28.9291 29.6288L26.3934 47.4235Z" fill="#707070"/>
<path d="M61.4751 50.7546H57.9777L50.2833 11.2204L50.7205 22.7037V62.2379H47.223V0.87659H50.7205L57.1033 29.1028L59.7264 46.1087L62.3495 29.1028L68.7323 0.87659H72.2298V62.2379H68.7323V22.7037L69.1695 11.2204L61.4751 50.7546Z" fill="#707070"/>
<path d="M78.7267 9.55484C78.7267 6.39911 79.3971 4.03232 80.7377 2.45445C82.1367 0.818151 84.3809 0 87.4703 0C90.5597 0 92.7748 0.818151 94.1155 2.45445C95.5145 4.03232 96.214 6.39911 96.214 9.55484V53.472C96.214 56.6277 95.5145 59.0238 94.1155 60.6601C92.7748 62.2964 90.5597 63.1145 87.4703 63.1145C84.3809 63.1145 82.1367 62.2964 80.7377 60.6601C79.3971 59.0238 78.7267 56.6277 78.7267 53.472V9.55484ZM82.2242 53.472C82.2242 55.5174 82.6322 57.0953 83.4483 58.2056C84.2643 59.2575 85.605 59.7835 87.4703 59.7835C89.3356 59.7835 90.6763 59.2575 91.4924 58.2056C92.3085 57.0953 92.7165 55.5174 92.7165 53.472V9.55484C92.7165 7.50946 92.3085 5.96081 91.4924 4.90891C90.6763 3.857 89.3356 3.33104 87.4703 3.33104C85.605 3.33104 84.2643 3.857 83.4483 4.90891C82.6322 5.96081 82.2242 7.50946 82.2242 9.55484V53.472Z" fill="#707070"/>
<path d="M99.6643 58.9069C101.53 58.9069 102.841 58.1179 103.599 56.5401C104.357 54.9622 104.794 52.7707 104.91 49.9657L106.659 0.87659H121.523V62.2379H118.026V4.29529H109.982L108.408 49.9657C108.291 53.8811 107.563 56.9199 106.222 59.0822C104.94 61.186 102.754 62.2379 99.6643 62.2379V58.9069Z" fill="#707070"/>
<path d="M131.755 62.2379H128.257V0.87659H131.755V62.2379Z" fill="#707070"/>
<path d="M155.464 51.1052C155.756 53.6766 156.135 55.6635 156.601 57.066C157.126 58.4686 158.146 59.1699 159.661 59.1699V62.5009C158.32 62.5009 157.184 62.2671 156.251 61.7996C155.377 61.2737 154.648 60.5432 154.065 59.6081C153.482 58.6147 153.016 57.4167 152.666 56.0141C152.375 54.5531 152.142 52.9168 151.967 51.1052L150.918 40.3232C150.684 38.044 150.218 36.2908 149.519 35.0636C148.819 33.8364 147.537 33.2228 145.671 33.2228H143.048V62.2379H139.551V0.87659H143.048V29.8917H145.671C147.362 29.8917 148.528 29.2781 149.169 28.0509C149.81 26.7652 150.247 24.9828 150.48 22.7037L151.53 12.0093C151.704 10.1977 151.938 8.59059 152.229 7.18804C152.579 5.72706 153.045 4.52905 153.628 3.59402C154.211 2.60055 154.94 1.87006 155.814 1.40255C156.747 0.876593 157.883 0.613616 159.224 0.613616V3.94466C157.708 3.94466 156.688 4.64593 156.164 6.04847C155.697 7.45102 155.319 9.43796 155.027 12.0093L153.978 22.7037C153.745 24.9244 153.307 26.7944 152.666 28.3139C152.083 29.7749 151.122 30.856 149.781 31.5573C151.296 32.2001 152.375 33.2812 153.016 34.8006C153.716 36.2616 154.182 38.1025 154.415 40.3232L155.464 51.1052Z" fill="#707070"/>
<path d="M161.249 0.87659H164.659L169.817 27.1743L172.441 43.6542L174.539 27.1743L179.086 0.87659H182.496L174.014 49.9657C173.723 51.8941 173.373 53.6181 172.965 55.1375C172.615 56.657 172.12 57.9426 171.479 58.9945C170.896 60.0464 170.109 60.8646 169.118 61.449C168.185 61.9749 166.961 62.2379 165.446 62.2379V58.9069C166.378 58.9069 167.136 58.7023 167.719 58.2933C168.302 57.8842 168.768 57.2998 169.118 56.5401C169.468 55.7219 169.759 54.7869 169.992 53.735C170.225 52.6246 170.459 51.3682 170.692 49.9657L170.779 49.1767L161.249 0.87659Z" fill="#707070"/>
<path d="M195.66 0.87659C198.458 0.87659 200.469 1.6363 201.693 3.15573C202.917 4.61671 203.529 6.74975 203.529 9.55484V24.4569C203.529 28.0217 202.363 30.3885 200.031 31.5573C202.946 32.726 204.403 35.3558 204.403 39.4466V52.5954C204.403 55.7511 203.704 58.1472 202.305 59.7835C200.964 61.4198 198.749 62.2379 195.66 62.2379H186.916V0.87659H195.66ZM190.413 33.2228V58.9069H195.66C197.525 58.9069 198.866 58.3809 199.682 57.329C200.498 56.2187 200.906 54.6408 200.906 52.5954V39.4466C200.906 37.4012 200.498 35.8525 199.682 34.8006C198.866 33.7487 197.525 33.2228 195.66 33.2228H190.413ZM190.413 4.20763V29.8917H195.66C198.574 29.8917 200.031 28.0801 200.031 24.4569V9.55484C200.031 5.99003 198.574 4.20763 195.66 4.20763H190.413Z" fill="#707070"/>
<path d="M225.426 50.7546H214.147L212.573 62.2379H208.988L218.082 0.788932H221.579L230.672 62.2379H227.087L225.426 50.7546ZM214.672 47.4235H224.989L222.453 29.6288L219.83 9.02888L217.207 29.6288L214.672 47.4235Z" fill="#707070"/>
<path d="M249.491 33.2228H238.999V62.2379H235.501V0.87659H238.999V29.8917H249.491V0.87659H252.988V62.2379H249.491V33.2228Z" fill="#707070"/>
<path d="M273.655 33.2228H263.163V62.2379H259.666V0.87659H263.163V29.8917H273.655V0.87659H277.153V62.2379H273.655V33.2228Z" fill="#707070"/>
<path d="M292.399 0.87659H300.705V62.2379H297.208V36.6415H293.186L285.579 62.2379H281.994L289.601 36.3785C285.637 35.385 283.655 31.9663 283.655 26.1224V11.308C283.655 7.91853 284.326 5.3472 285.666 3.59402C287.065 1.7824 289.309 0.87659 292.399 0.87659ZM287.153 11.308V26.1224C287.153 28.4015 287.561 30.1839 288.377 31.4696C289.193 32.6968 290.534 33.3104 292.399 33.3104H297.208V4.20763H292.399C290.534 4.20763 289.193 4.82125 288.377 6.04847C287.561 7.2757 287.153 9.02888 287.153 11.308Z" fill="#707070"/>
<path d="M334.713 50.7546H331.216L323.521 11.2204L323.959 22.7037V62.2379H320.461V0.87659H323.959L330.341 29.1028L332.964 46.1087L335.588 29.1028L341.97 0.87659H345.468V62.2379H341.97V22.7037L342.408 11.2204L334.713 50.7546Z" fill="#707070"/>
<path d="M351.965 9.55484C351.965 6.39911 352.635 4.03232 353.976 2.45445C355.375 0.818151 357.619 0 360.708 0C363.798 0 366.013 0.818151 367.354 2.45445C368.753 4.03232 369.452 6.39911 369.452 9.55484V53.472C369.452 56.6277 368.753 59.0238 367.354 60.6601C366.013 62.2964 363.798 63.1145 360.708 63.1145C357.619 63.1145 355.375 62.2964 353.976 60.6601C352.635 59.0238 351.965 56.6277 351.965 53.472V9.55484ZM355.462 53.472C355.462 55.5174 355.87 57.0953 356.686 58.2056C357.502 59.2575 358.843 59.7835 360.708 59.7835C362.574 59.7835 363.914 59.2575 364.73 58.2056C365.547 57.0953 365.955 55.5174 365.955 53.472V9.55484C365.955 7.50946 365.547 5.96081 364.73 4.90891C363.914 3.857 362.574 3.33104 360.708 3.33104C358.843 3.33104 357.502 3.857 356.686 4.90891C355.87 5.96081 355.462 7.50946 355.462 9.55484V53.472Z" fill="#707070"/>
<path d="M382.258 22.7037C382.491 24.9828 382.928 26.7652 383.57 28.0509C384.211 29.2781 385.377 29.8917 387.067 29.8917H387.941V0.87659H391.439V29.8917H392.313C394.004 29.8917 395.169 29.2781 395.811 28.0509C396.452 26.7652 396.889 24.9828 397.122 22.7037L398.171 12.0093C398.346 10.1977 398.579 8.59059 398.871 7.18804C399.221 5.72706 399.687 4.52905 400.27 3.59402C400.853 2.60055 401.581 1.87006 402.456 1.40255C403.388 0.876593 404.525 0.613616 405.866 0.613616V3.94466C404.35 3.94466 403.33 4.64593 402.806 6.04847C402.339 7.45102 401.96 9.43796 401.669 12.0093L400.62 22.7037C400.386 24.9244 399.949 26.7944 399.308 28.3139C398.725 29.7749 397.763 30.856 396.423 31.5573C397.938 32.2001 399.017 33.2812 399.658 34.8006C400.357 36.2616 400.824 38.1025 401.057 40.3232L402.106 51.1052C402.397 53.6766 402.776 55.6635 403.243 57.066C403.767 58.4686 404.787 59.1699 406.303 59.1699V62.5009C404.962 62.5009 403.826 62.2671 402.893 61.7996C402.019 61.2737 401.29 60.5432 400.707 59.6081C400.124 58.6147 399.658 57.4167 399.308 56.0141C399.017 54.5531 398.783 52.9168 398.609 51.1052L397.559 40.3232C397.326 38.044 396.86 36.2908 396.16 35.0636C395.461 33.8364 394.178 33.2228 392.313 33.2228H391.439V62.2379H387.941V33.2228H387.067C385.202 33.2228 383.919 33.8364 383.22 35.0636C382.52 36.2908 382.054 38.044 381.821 40.3232L380.772 51.1052C380.422 54.7285 379.722 57.5336 378.673 59.5205C377.624 61.5074 375.759 62.5009 373.077 62.5009V59.1699C374.593 59.1699 375.584 58.4686 376.05 57.066C376.575 55.6635 376.983 53.6766 377.274 51.1052L378.323 40.3232C378.557 38.1025 378.994 36.2616 379.635 34.8006C380.334 33.2812 381.442 32.2001 382.957 31.5573C381.617 30.856 380.626 29.7749 379.985 28.3139C379.402 26.7944 378.994 24.9244 378.761 22.7037L377.711 12.0093C377.42 9.43796 377.012 7.45102 376.487 6.04847C376.021 4.64593 375.03 3.94466 373.514 3.94466V0.613616C376.196 0.613616 378.061 1.60708 379.11 3.59402C380.16 5.58096 380.859 8.38605 381.209 12.0093L382.258 22.7037Z" fill="#707070"/>
<path d="M424.459 4.29529H413.529V29.8917H422.71V33.2228H413.529V58.8192H424.459V62.2379H410.032V0.87659H424.459V4.29529Z" fill="#707070"/>
<path d="M442.906 0.87659H458.644V4.29529H446.403V23.0543H451.65C454.739 23.0543 456.954 23.9601 458.295 25.7718C459.694 27.5834 460.393 30.1839 460.393 33.5734V51.8065C460.393 55.196 459.694 57.7965 458.295 59.6081C456.954 61.3613 454.739 62.2379 451.65 62.2379H442.906V0.87659ZM446.403 26.3854V58.9069H451.65C453.515 58.9069 454.856 58.2933 455.672 57.066C456.488 55.8388 456.896 54.0856 456.896 51.8065V33.5734C456.896 31.2943 456.488 29.5411 455.672 28.3139C454.856 27.0282 453.515 26.3854 451.65 26.3854H446.403Z" fill="#707070"/>
<path d="M464.287 0.87659H467.697L472.856 27.1743L475.479 43.6542L477.577 27.1743L482.124 0.87659H485.534L477.052 49.9657C476.761 51.8941 476.411 53.6181 476.003 55.1375C475.654 56.657 475.158 57.9426 474.517 58.9945C473.934 60.0464 473.147 60.8646 472.156 61.449C471.223 61.9749 469.999 62.2379 468.484 62.2379V58.9069C469.416 58.9069 470.174 58.7023 470.757 58.2933C471.34 57.8842 471.806 57.2998 472.156 56.5401C472.506 55.7219 472.797 54.7869 473.03 53.735C473.264 52.6246 473.497 51.3682 473.73 49.9657L473.817 49.1767L464.287 0.87659Z" fill="#707070"/>
<path d="M487.506 0.87659H506.742V4.29529H498.873V62.2379H495.375V4.29529H487.506V0.87659Z" fill="#707070"/>
<path d="M514.457 35.9402L514.194 47.4235L524.949 3.59402L525.211 0.87659H528.446V62.2379H524.949V27.1743L525.211 15.691L514.457 59.5205L514.194 62.2379H510.959V0.87659H514.457V35.9402Z" fill="#707070"/>
<path d="M563.138 58.8192H571.007V0.87659H574.504V62.2379H548.273V0.87659H551.771V58.8192H559.64V0.87659H563.138V58.8192Z" fill="#707070"/>
<path d="M598.11 51.1052C598.401 53.6766 598.78 55.6635 599.247 57.066C599.771 58.4686 600.791 59.1699 602.307 59.1699V62.5009C600.966 62.5009 599.829 62.2671 598.897 61.7996C598.022 61.2737 597.294 60.5432 596.711 59.6081C596.128 58.6147 595.662 57.4167 595.312 56.0141C595.021 54.5531 594.787 52.9168 594.612 51.1052L593.563 40.3232C593.33 38.044 592.864 36.2908 592.164 35.0636C591.465 33.8364 590.182 33.2228 588.317 33.2228H585.694V62.2379H582.197V0.87659H585.694V29.8917H588.317C590.008 29.8917 591.173 29.2781 591.815 28.0509C592.456 26.7652 592.893 24.9828 593.126 22.7037L594.175 12.0093C594.35 10.1977 594.583 8.59059 594.875 7.18804C595.224 5.72706 595.691 4.52905 596.274 3.59402C596.857 2.60055 597.585 1.87006 598.46 1.40255C599.392 0.876593 600.529 0.613616 601.87 0.613616V3.94466C600.354 3.94466 599.334 4.64593 598.809 6.04847C598.343 7.45102 597.964 9.43796 597.673 12.0093L596.623 22.7037C596.39 24.9244 595.953 26.7944 595.312 28.3139C594.729 29.7749 593.767 30.856 592.427 31.5573C593.942 32.2001 595.021 33.2812 595.662 34.8006C596.361 36.2616 596.828 38.1025 597.061 40.3232L598.11 51.1052Z" fill="#707070"/>
<path d="M609.665 62.2379H606.168V0.87659H609.665V62.2379Z" fill="#707070"/>
<path d="M634.074 62.2379H616.587V69.3383H613.527V58.8192C614.284 58.8192 614.926 58.3517 615.45 57.4167C616.033 56.4232 616.5 55.1668 616.849 53.6473C617.199 52.1279 617.461 50.4332 617.636 48.5631C617.869 46.6931 618.015 44.8814 618.073 43.1283L619.647 0.87659H634.511V58.8192H637.134V69.3383H634.074V62.2379ZM621.571 43.1283C621.513 44.5892 621.396 46.1087 621.221 47.6865C621.104 49.2059 620.9 50.6669 620.609 52.0695C620.376 53.472 620.026 54.7577 619.56 55.9265C619.093 57.0953 618.51 58.0595 617.811 58.8192H631.014V4.29529H622.97L621.571 43.1283Z" fill="#707070"/>
<path d="M638.114 58.9069C639.979 58.9069 641.291 58.1179 642.049 56.5401C642.806 54.9622 643.244 52.7707 643.36 49.9657L645.109 0.87659H659.973V62.2379H656.476V4.29529H648.431L646.858 49.9657C646.741 53.8811 646.012 56.9199 644.672 59.0822C643.389 61.186 641.203 62.2379 638.114 62.2379V58.9069Z" fill="#707070"/>
<path d="M670.117 35.9402L669.855 47.4235L680.609 3.59402L680.872 0.87659H684.107V62.2379H680.609V27.1743L680.872 15.691L670.117 59.5205L669.855 62.2379H666.62V0.87659H670.117V35.9402Z" fill="#707070"/>
<path d="M699.528 0.87659C702.326 0.87659 704.337 1.6363 705.561 3.15573C706.785 4.61671 707.397 6.74975 707.397 9.55484V24.4569C707.397 28.0217 706.231 30.3885 703.9 31.5573C706.814 32.726 708.271 35.3558 708.271 39.4466V52.5954C708.271 55.7511 707.572 58.1472 706.173 59.7835C704.832 61.4198 702.617 62.2379 699.528 62.2379H690.784V0.87659H699.528ZM694.281 33.2228V58.9069H699.528C701.393 58.9069 702.734 58.3809 703.55 57.329C704.366 56.2187 704.774 54.6408 704.774 52.5954V39.4466C704.774 37.4012 704.366 35.8525 703.55 34.8006C702.734 33.7487 701.393 33.2228 699.528 33.2228H694.281ZM694.281 4.20763V29.8917H699.528C702.442 29.8917 703.9 28.0801 703.9 24.4569V9.55484C703.9 5.99003 702.442 4.20763 699.528 4.20763H694.281Z" fill="#707070"/>
<path d="M718.19 35.9402L717.927 47.4235L728.682 3.59402L728.944 0.87659H732.18V62.2379H728.682V27.1743L728.944 15.691L718.19 59.5205L717.927 62.2379H714.692V0.87659H718.19V35.9402Z" fill="#707070"/>
<path d="M753.109 50.7546H749.612L741.917 11.2204L742.354 22.7037V62.2379H738.857V0.87659H742.354L748.737 29.1028L751.36 46.1087L753.983 29.1028L760.366 0.87659H763.864V62.2379H760.366V22.7037L760.803 11.2204L753.109 50.7546Z" fill="#707070"/>
<path d="M801.347 62.2379H783.86V69.3383H780.8V58.8192C781.557 58.8192 782.199 58.3517 782.723 57.4167C783.306 56.4232 783.772 55.1668 784.122 53.6473C784.472 52.1279 784.734 50.4332 784.909 48.5631C785.142 46.6931 785.288 44.8814 785.346 43.1283L786.92 0.87659H801.784V58.8192H804.407V69.3383H801.347V62.2379ZM788.844 43.1283C788.785 44.5892 788.669 46.1087 788.494 47.6865C788.377 49.2059 788.173 50.6669 787.882 52.0695C787.649 53.472 787.299 54.7577 786.833 55.9265C786.366 57.0953 785.784 58.0595 785.084 58.8192H798.287V4.29529H790.243L788.844 43.1283Z" fill="#707070"/>
<path d="M805.387 58.9069C807.252 58.9069 808.564 58.1179 809.322 56.5401C810.079 54.9622 810.516 52.7707 810.633 49.9657L812.382 0.87659H827.246V62.2379H823.749V4.29529H815.704L814.13 49.9657C814.014 53.8811 813.285 56.9199 811.945 59.0822C810.662 61.186 808.476 62.2379 805.387 62.2379V58.9069Z" fill="#707070"/>
<path d="M842.461 0.87659H850.768V62.2379H847.27V36.6415H843.248L835.641 62.2379H832.056L839.663 36.3785C835.7 35.385 833.718 31.9663 833.718 26.1224V11.308C833.718 7.91853 834.388 5.3472 835.729 3.59402C837.128 1.7824 839.372 0.87659 842.461 0.87659ZM837.215 11.308V26.1224C837.215 28.4015 837.623 30.1839 838.439 31.4696C839.255 32.6968 840.596 33.3104 842.461 33.3104H847.27V4.20763H842.461C840.596 4.20763 839.255 4.82125 838.439 6.04847C837.623 7.2757 837.215 9.02888 837.215 11.308Z" fill="#707070"/>
<path d="M879.267 0.87659C882.065 0.87659 884.076 1.6363 885.3 3.15573C886.524 4.61671 887.136 6.74975 887.136 9.55484V24.4569C887.136 28.0217 885.971 30.3885 883.639 31.5573C886.553 32.726 888.011 35.3558 888.011 39.4466V52.5954C888.011 55.7511 887.311 58.1472 885.912 59.7835C884.572 61.4198 882.357 62.2379 879.267 62.2379H870.523V0.87659H879.267ZM874.021 33.2228V58.9069H879.267C881.132 58.9069 882.473 58.3809 883.289 57.329C884.105 56.2187 884.513 54.6408 884.513 52.5954V39.4466C884.513 37.4012 884.105 35.8525 883.289 34.8006C882.473 33.7487 881.132 33.2228 879.267 33.2228H874.021ZM874.021 4.20763V29.8917H879.267C882.182 29.8917 883.639 28.0801 883.639 24.4569V9.55484C883.639 5.99003 882.182 4.20763 879.267 4.20763H874.021Z" fill="#707070"/>
<path d="M909.034 50.7546H897.754L896.18 62.2379H892.596L901.689 0.788932H905.186L914.28 62.2379H910.695L909.034 50.7546ZM898.279 47.4235H908.596L906.061 29.6288L903.438 9.02888L900.815 29.6288L898.279 47.4235Z" fill="#707070"/>
<path d="M933.973 58.8192H941.842V0.87659H945.339V62.2379H919.109V0.87659H922.606V58.8192H930.475V0.87659H933.973V58.8192Z" fill="#707070"/>
<path d="M951.808 9.55484C951.808 6.39911 952.478 4.03232 953.819 2.45445C955.218 0.818151 957.462 0 960.551 0C963.641 0 965.856 0.818151 967.196 2.45445C968.595 4.03232 969.295 6.39911 969.295 9.55484V53.472C969.295 56.6277 968.595 59.0238 967.196 60.6601C965.856 62.2964 963.641 63.1145 960.551 63.1145C957.462 63.1145 955.218 62.2964 953.819 60.6601C952.478 59.0238 951.808 56.6277 951.808 53.472V9.55484ZM955.305 53.472C955.305 55.5174 955.713 57.0953 956.529 58.2056C957.345 59.2575 958.686 59.7835 960.551 59.7835C962.417 59.7835 963.757 59.2575 964.573 58.2056C965.389 57.0953 965.797 55.5174 965.797 53.472V9.55484C965.797 7.50946 965.389 5.96081 964.573 4.90891C963.757 3.857 962.417 3.33104 960.551 3.33104C958.686 3.33104 957.345 3.857 956.529 4.90891C955.713 5.96081 955.305 7.50946 955.305 9.55484V53.472Z" fill="#707070"/>
<path d="M989.795 4.29529H979.303V62.2379H975.805V0.87659H989.795V4.29529Z" fill="#707070"/>
<path d="M993.818 9.55484C993.818 6.39911 994.488 4.03232 995.829 2.45445C997.228 0.818151 999.472 0 1002.56 0C1005.65 0 1007.87 0.818151 1009.21 2.45445C1010.61 4.03232 1011.31 6.39911 1011.31 9.55484V53.472C1011.31 56.6277 1010.61 59.0238 1009.21 60.6601C1007.87 62.2964 1005.65 63.1145 1002.56 63.1145C999.472 63.1145 997.228 62.2964 995.829 60.6601C994.488 59.0238 993.818 56.6277 993.818 53.472V9.55484ZM997.315 53.472C997.315 55.5174 997.724 57.0953 998.54 58.2056C999.356 59.2575 1000.7 59.7835 1002.56 59.7835C1004.43 59.7835 1005.77 59.2575 1006.58 58.2056C1007.4 57.0953 1007.81 55.5174 1007.81 53.472V9.55484C1007.81 7.50946 1007.4 5.96081 1006.58 4.90891C1005.77 3.857 1004.43 3.33104 1002.56 3.33104C1000.7 3.33104 999.356 3.857 998.54 4.90891C997.724 5.96081 997.315 7.50946 997.315 9.55484V53.472Z" fill="#707070"/>
<path d="M1038.14 29.8917C1040 29.8917 1041.34 29.2781 1042.16 28.0509C1042.97 26.8237 1043.38 25.0705 1043.38 22.7914V9.55484C1043.38 7.50946 1042.97 5.96081 1042.16 4.90891C1041.34 3.857 1040 3.33104 1038.14 3.33104C1036.27 3.33104 1034.93 3.857 1034.11 4.90891C1033.3 5.96081 1032.89 7.50946 1032.89 9.55484V18.4084H1029.39V9.55484C1029.39 6.39911 1030.06 4.03232 1031.4 2.45445C1032.8 0.818151 1035.05 0 1038.14 0C1041.22 0 1043.44 0.818151 1044.78 2.45445C1046.18 4.03232 1046.88 6.39911 1046.88 9.55484V22.7914C1046.88 27.3496 1045.42 30.2716 1042.51 31.5573C1045.42 32.8429 1046.88 35.7649 1046.88 40.3232V53.472C1046.88 56.6277 1046.18 59.0238 1044.78 60.6601C1043.44 62.2964 1041.22 63.1145 1038.14 63.1145C1035.05 63.1145 1032.8 62.2964 1031.4 60.6601C1030.06 59.0238 1029.39 56.6277 1029.39 53.472V44.7061H1032.89V53.472C1032.89 55.5174 1033.3 57.0953 1034.11 58.2056C1034.93 59.2575 1036.27 59.7835 1038.14 59.7835C1040 59.7835 1041.34 59.2575 1042.16 58.2056C1042.97 57.0953 1043.38 55.5174 1043.38 53.472V40.3232C1043.38 38.044 1042.97 36.2908 1042.16 35.0636C1041.34 33.8364 1040 33.2228 1038.14 33.2228H1033.76V29.8917H1038.14Z" fill="#707070"/>
<path d="M1071 62.2379H1053.51V69.3383H1050.45V58.8192C1051.21 58.8192 1051.85 58.3517 1052.38 57.4167C1052.96 56.4232 1053.42 55.1668 1053.77 53.6473C1054.12 52.1279 1054.39 50.4332 1054.56 48.5631C1054.79 46.6931 1054.94 44.8814 1055 43.1283L1056.57 0.87659H1071.44V58.8192H1074.06V69.3383H1071V62.2379ZM1058.5 43.1283C1058.44 44.5892 1058.32 46.1087 1058.15 47.6865C1058.03 49.2059 1057.83 50.6669 1057.53 52.0695C1057.3 53.472 1056.95 54.7577 1056.48 55.9265C1056.02 57.0953 1055.44 58.0595 1054.74 58.8192H1067.94V4.29529H1059.89L1058.5 43.1283Z" fill="#707070"/>
<path d="M1077.92 9.55484C1077.92 6.39911 1078.59 4.03232 1079.94 2.45445C1081.33 0.818151 1083.58 0 1086.67 0C1089.76 0 1091.97 0.818151 1093.31 2.45445C1094.71 4.03232 1095.41 6.39911 1095.41 9.55484V53.472C1095.41 56.6277 1094.71 59.0238 1093.31 60.6601C1091.97 62.2964 1089.76 63.1145 1086.67 63.1145C1083.58 63.1145 1081.33 62.2964 1079.94 60.6601C1078.59 59.0238 1077.92 56.6277 1077.92 53.472V9.55484ZM1081.42 53.472C1081.42 55.5174 1081.83 57.0953 1082.65 58.2056C1083.46 59.2575 1084.8 59.7835 1086.67 59.7835C1088.53 59.7835 1089.87 59.2575 1090.69 58.2056C1091.51 57.0953 1091.91 55.5174 1091.91 53.472V9.55484C1091.91 7.50946 1091.51 5.96081 1090.69 4.90891C1089.87 3.857 1088.53 3.33104 1086.67 3.33104C1084.8 3.33104 1083.46 3.857 1082.65 4.90891C1081.83 5.96081 1081.42 7.50946 1081.42 9.55484V53.472Z" fill="#707070"/>
<path d="M1101.92 0.87659H1110.67C1113.76 0.87659 1115.97 1.7824 1117.31 3.59402C1118.71 5.3472 1119.41 7.91853 1119.41 11.308V29.5411C1119.41 32.9306 1118.71 35.5311 1117.31 37.3428C1115.97 39.1544 1113.76 40.0602 1110.67 40.0602H1105.42V62.2379H1101.92V0.87659ZM1105.42 4.20763V36.7291H1110.67C1112.53 36.7291 1113.87 36.1155 1114.69 34.8883C1115.5 33.6026 1115.91 31.8202 1115.91 29.5411V11.308C1115.91 9.02888 1115.5 7.2757 1114.69 6.04847C1113.87 4.82125 1112.53 4.20763 1110.67 4.20763H1105.42Z" fill="#707070"/>
<path d="M1124.89 9.55484C1124.89 6.39911 1125.56 4.03232 1126.9 2.45445C1128.3 0.818151 1130.54 0 1133.63 0C1136.72 0 1138.93 0.818151 1140.28 2.45445C1141.67 4.03232 1142.37 6.39911 1142.37 9.55484V53.472C1142.37 56.6277 1141.67 59.0238 1140.28 60.6601C1138.93 62.2964 1136.72 63.1145 1133.63 63.1145C1130.54 63.1145 1128.3 62.2964 1126.9 60.6601C1125.56 59.0238 1124.89 56.6277 1124.89 53.472V9.55484ZM1128.38 53.472C1128.38 55.5174 1128.79 57.0953 1129.61 58.2056C1130.42 59.2575 1131.77 59.7835 1133.63 59.7835C1135.5 59.7835 1136.84 59.2575 1137.65 58.2056C1138.47 57.0953 1138.88 55.5174 1138.88 53.472V9.55484C1138.88 7.50946 1138.47 5.96081 1137.65 4.90891C1136.84 3.857 1135.5 3.33104 1133.63 3.33104C1131.77 3.33104 1130.42 3.857 1129.61 4.90891C1128.79 5.96081 1128.38 7.50946 1128.38 9.55484V53.472Z" fill="#707070"/>
<path d="M1157.63 0.87659C1160.43 0.87659 1162.44 1.6363 1163.66 3.15573C1164.89 4.61671 1165.5 6.74975 1165.5 9.55484V24.4569C1165.5 28.0217 1164.33 30.3885 1162 31.5573C1164.91 32.726 1166.37 35.3558 1166.37 39.4466V52.5954C1166.37 55.7511 1165.67 58.1472 1164.27 59.7835C1162.93 61.4198 1160.72 62.2379 1157.63 62.2379H1148.88V0.87659H1157.63ZM1152.38 33.2228V58.9069H1157.63C1159.49 58.9069 1160.83 58.3809 1161.65 57.329C1162.47 56.2187 1162.87 54.6408 1162.87 52.5954V39.4466C1162.87 37.4012 1162.47 35.8525 1161.65 34.8006C1160.83 33.7487 1159.49 33.2228 1157.63 33.2228H1152.38ZM1152.38 4.20763V29.8917H1157.63C1160.54 29.8917 1162 28.0801 1162 24.4569V9.55484C1162 5.99003 1160.54 4.20763 1157.63 4.20763H1152.38Z" fill="#707070"/>
<path d="M1175.5 16.6552H1173.75L1172.44 0.87659H1176.82L1175.5 16.6552Z" fill="#707070"/>
<path d="M1191.69 0.87659H1200V62.2379H1196.5V36.6415H1192.48L1184.87 62.2379H1181.29L1188.9 36.3785C1184.93 35.385 1182.95 31.9663 1182.95 26.1224V11.308C1182.95 7.91853 1183.62 5.3472 1184.96 3.59402C1186.36 1.7824 1188.6 0.87659 1191.69 0.87659ZM1186.45 11.308V26.1224C1186.45 28.4015 1186.86 30.1839 1187.67 31.4696C1188.49 32.6968 1189.83 33.3104 1191.69 33.3104H1196.5V4.20763H1191.69C1189.83 4.20763 1188.49 4.82125 1187.67 6.04847C1186.86 7.2757 1186.45 9.02888 1186.45 11.308Z" fill="#707070"/>
</svg>
