<svg width="1200" height="70" xmlns="http://www.w3.org/2000/svg" fill="none">
 <defs>
  <filter id="svg_47_blur">
   <feGaussianBlur stdDeviation="1" in="SourceGraphic"/>
  </filter>
 </defs>
 <g>
  <title>Layer 1</title>
  <path opacity="0.9" filter="url(#svg_47_blur)" id="svg_1" fill="#0000bf" d="m17.4872,53.472c0,3.1557 -0.6995,5.5518 -2.0984,7.1881c-1.3407,1.6363 -3.5558,2.4544 -6.64518,2.4544c-3.08941,0 -5.33361,-0.8181 -6.73259,-2.4544c-1.34069,-1.6363 -2.01103,-4.0324 -2.01103,-7.1881l0,-43.91716c0,-3.15573 0.67034,-5.52252 2.01103,-7.10039c1.39898,-1.6363 3.64318,-2.45445 6.73259,-2.45445c3.08938,0 5.30448,0.81815 6.64518,2.45445c1.3989,1.57787 2.0984,3.94466 2.0984,7.10039l0,8.85356l-3.4974,0l0,-8.85356c0,-2.04538 -0.408,-3.59403 -1.2241,-4.64593c-0.8161,-1.05191 -2.1568,-1.57787 -4.02208,-1.57787c-1.86531,0 -3.206,0.52596 -4.02207,1.57787c-0.81607,1.0519 -1.2241,2.60055 -1.2241,4.64593l0,43.91716c0,2.0454 0.40803,3.6233 1.2241,4.7336c0.81607,1.0519 2.15676,1.5779 4.02207,1.5779c1.86528,0 3.20598,-0.526 4.02208,-1.5779c0.8161,-1.1103 1.2241,-2.6882 1.2241,-4.7336l0,-8.7659l3.4974,0l0,8.7659z"/>
  <path opacity="0.9" filter="url(#svg_47_blur)" id="svg_2" fill="#0000bf" d="m37.1481,50.7546l-11.2793,0l-1.5738,11.4833l-3.5849,0l9.0933,-61.44897l3.4975,0l9.0934,61.44897l-3.5849,0l-1.6613,-11.4833zm-10.7547,-3.3311l10.3175,0l-2.5357,-17.7947l-2.623,-20.59992l-2.6231,20.59992l-2.5357,17.7947z"/>
  <path opacity="0.9" filter="url(#svg_47_blur)" id="svg_3" fill="#0000bf" d="m61.4751,50.7546l-3.4974,0l-7.6944,-39.5342l0.4372,11.4833l0,39.5342l-3.4975,0l0,-61.36131l3.4975,0l6.3828,28.22621l2.6231,17.0059l2.6231,-17.0059l6.3828,-28.22621l3.4975,0l0,61.36131l-3.4975,0l0,-39.5342l0.4372,-11.4833l-7.6944,39.5342z"/>
  <path opacity="0.9" filter="url(#svg_47_blur)" id="svg_4" fill="#0000bf" d="m78.7267,9.55484c0,-3.15573 0.6704,-5.52252 2.011,-7.10039c1.399,-1.6363 3.6432,-2.45445 6.7326,-2.45445c3.0894,0 5.3045,0.81815 6.6452,2.45445c1.399,1.57787 2.0985,3.94466 2.0985,7.10039l0,43.91716c0,3.1557 -0.6995,5.5518 -2.0985,7.1881c-1.3407,1.6363 -3.5558,2.4544 -6.6452,2.4544c-3.0894,0 -5.3336,-0.8181 -6.7326,-2.4544c-1.3406,-1.6363 -2.011,-4.0324 -2.011,-7.1881l0,-43.91716zm3.4975,43.91716c0,2.0454 0.408,3.6233 1.2241,4.7336c0.816,1.0519 2.1567,1.5779 4.022,1.5779c1.8653,0 3.206,-0.526 4.0221,-1.5779c0.8161,-1.1103 1.2241,-2.6882 1.2241,-4.7336l0,-43.91716c0,-2.04538 -0.408,-3.59403 -1.2241,-4.64593c-0.8161,-1.05191 -2.1568,-1.57787 -4.0221,-1.57787c-1.8653,0 -3.206,0.52596 -4.022,1.57787c-0.8161,1.0519 -1.2241,2.60055 -1.2241,4.64593l0,43.91716z"/>
  <path opacity="0.9" filter="url(#svg_47_blur)" id="svg_5" fill="#0000bf" d="m99.6643,58.9069c1.8657,0 3.1767,-0.789 3.9347,-2.3668c0.758,-1.5779 1.195,-3.7694 1.311,-6.5744l1.749,-49.08911l14.864,0l0,61.36131l-3.497,0l0,-57.94261l-8.044,0l-1.574,45.67041c-0.117,3.9154 -0.845,6.9542 -2.186,9.1165c-1.282,2.1038 -3.468,3.1557 -6.5577,3.1557l0,-3.331z"/>
  <path opacity="0.9" filter="url(#svg_47_blur)" id="svg_6" fill="#0000bf" d="m131.755,62.2379l-3.498,0l0,-61.36131l3.498,0l0,61.36131z"/>
  <path opacity="0.9" filter="url(#svg_47_blur)" id="svg_7" fill="#0000bf" d="m155.464,51.1052c0.292,2.5714 0.671,4.5583 1.137,5.9608c0.525,1.4026 1.545,2.1039 3.06,2.1039l0,3.331c-1.341,0 -2.477,-0.2338 -3.41,-0.7013c-0.874,-0.5259 -1.603,-1.2564 -2.186,-2.1915c-0.583,-0.9934 -1.049,-2.1914 -1.399,-3.594c-0.291,-1.461 -0.524,-3.0973 -0.699,-4.9089l-1.049,-10.782c-0.234,-2.2792 -0.7,-4.0324 -1.399,-5.2596c-0.7,-1.2272 -1.982,-1.8408 -3.848,-1.8408l-2.623,0l0,29.0151l-3.497,0l0,-61.36131l3.497,0l0,29.01511l2.623,0c1.691,0 2.857,-0.6136 3.498,-1.8408c0.641,-1.2857 1.078,-3.0681 1.311,-5.3472l1.05,-10.6944c0.174,-1.8116 0.408,-3.41871 0.699,-4.82126c0.35,-1.46098 0.816,-2.65899 1.399,-3.59402c0.583,-0.99347 1.312,-1.72396 2.186,-2.19147c0.933,-0.52596 2.069,-0.78893 3.41,-0.78893l0,3.33104c-1.516,0 -2.536,0.70127 -3.06,2.10381c-0.467,1.40255 -0.845,3.38949 -1.137,5.96083l-1.049,10.6944c-0.233,2.2207 -0.671,4.0907 -1.312,5.6102c-0.583,1.461 -1.544,2.5421 -2.885,3.2434c1.515,0.6428 2.594,1.7239 3.235,3.2433c0.7,1.461 1.166,3.3019 1.399,5.5226l1.049,10.782z"/>
  <path opacity="0.9" filter="url(#svg_47_blur)" id="svg_8" fill="#0000bf" d="m161.249,0.87659l3.41,0l5.158,26.29771l2.624,16.4799l2.098,-16.4799l4.547,-26.29771l3.41,0l-8.482,49.08911c-0.291,1.9284 -0.641,3.6524 -1.049,5.1718c-0.35,1.5195 -0.845,2.8051 -1.486,3.857c-0.583,1.0519 -1.37,1.8701 -2.361,2.4545c-0.933,0.5259 -2.157,0.7889 -3.672,0.7889l0,-3.331c0.932,0 1.69,-0.2046 2.273,-0.6136c0.583,-0.4091 1.049,-0.9935 1.399,-1.7532c0.35,-0.8182 0.641,-1.7532 0.874,-2.8051c0.233,-1.1104 0.467,-2.3668 0.7,-3.7693l0.087,-0.789l-9.53,-48.30011z"/>
  <path opacity="0.9" filter="url(#svg_47_blur)" id="svg_9" fill="#0000bf" d="m195.66,0.87659c2.798,0 4.809,0.75971 6.033,2.27914c1.224,1.46098 1.836,3.59402 1.836,6.39911l0,14.90206c0,3.5648 -1.166,5.9316 -3.498,7.1004c2.915,1.1687 4.372,3.7985 4.372,7.8893l0,13.1488c0,3.1557 -0.699,5.5518 -2.098,7.1881c-1.341,1.6363 -3.556,2.4544 -6.645,2.4544l-8.744,0l0,-61.36131l8.744,0zm-5.247,32.34621l0,25.6841l5.247,0c1.865,0 3.206,-0.526 4.022,-1.5779c0.816,-1.1103 1.224,-2.6882 1.224,-4.7336l0,-13.1488c0,-2.0454 -0.408,-3.5941 -1.224,-4.646c-0.816,-1.0519 -2.157,-1.5778 -4.022,-1.5778l-5.247,0zm0,-29.01517l0,25.68407l5.247,0c2.914,0 4.371,-1.8116 4.371,-5.4348l0,-14.90206c0,-3.56481 -1.457,-5.34721 -4.371,-5.34721l-5.247,0z"/>
  <path opacity="0.9" filter="url(#svg_47_blur)" id="svg_10" fill="#0000bf" d="m225.426,50.7546l-11.279,0l-1.574,11.4833l-3.585,0l9.094,-61.44897l3.497,0l9.093,61.44897l-3.585,0l-1.661,-11.4833zm-10.754,-3.3311l10.317,0l-2.536,-17.7947l-2.623,-20.59992l-2.623,20.59992l-2.535,17.7947z"/>
  <path opacity="0.9" filter="url(#svg_47_blur)" id="svg_11" fill="#0000bf" d="m249.491,33.2228l-10.492,0l0,29.0151l-3.498,0l0,-61.36131l3.498,0l0,29.01511l10.492,0l0,-29.01511l3.497,0l0,61.36131l-3.497,0l0,-29.0151z"/>
  <path opacity="0.9" filter="url(#svg_47_blur)" id="svg_12" fill="#0000bf" d="m273.655,33.2228l-10.492,0l0,29.0151l-3.497,0l0,-61.36131l3.497,0l0,29.01511l10.492,0l0,-29.01511l3.498,0l0,61.36131l-3.498,0l0,-29.0151z"/>
  <path opacity="0.9" filter="url(#svg_47_blur)" id="svg_13" fill="#0000bf" d="m292.399,0.87659l8.306,0l0,61.36131l-3.497,0l0,-25.5964l-4.022,0l-7.607,25.5964l-3.585,0l7.607,-25.8594c-3.964,-0.9935 -5.946,-4.4122 -5.946,-10.2561l0,-14.8144c0,-3.38947 0.671,-5.9608 2.011,-7.71398c1.399,-1.81162 3.643,-2.71743 6.733,-2.71743zm-5.246,10.43141l0,14.8144c0,2.2791 0.408,4.0615 1.224,5.3472c0.816,1.2272 2.157,1.8408 4.022,1.8408l4.809,0l0,-29.10277l-4.809,0c-1.865,0 -3.206,0.61362 -4.022,1.84084c-0.816,1.22723 -1.224,2.98041 -1.224,5.25953z"/>
  <path opacity="0.9" filter="url(#svg_47_blur)" id="svg_14" fill="#0000bf" d="m334.713,50.7546l-3.497,0l-7.695,-39.5342l0.438,11.4833l0,39.5342l-3.498,0l0,-61.36131l3.498,0l6.382,28.22621l2.623,17.0059l2.624,-17.0059l6.382,-28.22621l3.498,0l0,61.36131l-3.498,0l0,-39.5342l0.438,-11.4833l-7.695,39.5342z"/>
  <path opacity="0.9" filter="url(#svg_47_blur)" id="svg_15" fill="#0000bf" d="m351.965,9.55484c0,-3.15573 0.67,-5.52252 2.011,-7.10039c1.399,-1.6363 3.643,-2.45445 6.732,-2.45445c3.09,0 5.305,0.81815 6.646,2.45445c1.399,1.57787 2.098,3.94466 2.098,7.10039l0,43.91716c0,3.1557 -0.699,5.5518 -2.098,7.1881c-1.341,1.6363 -3.556,2.4544 -6.646,2.4544c-3.089,0 -5.333,-0.8181 -6.732,-2.4544c-1.341,-1.6363 -2.011,-4.0324 -2.011,-7.1881l0,-43.91716zm3.497,43.91716c0,2.0454 0.408,3.6233 1.224,4.7336c0.816,1.0519 2.157,1.5779 4.022,1.5779c1.866,0 3.206,-0.526 4.022,-1.5779c0.817,-1.1103 1.225,-2.6882 1.225,-4.7336l0,-43.91716c0,-2.04538 -0.408,-3.59403 -1.225,-4.64593c-0.816,-1.05191 -2.156,-1.57787 -4.022,-1.57787c-1.865,0 -3.206,0.52596 -4.022,1.57787c-0.816,1.0519 -1.224,2.60055 -1.224,4.64593l0,43.91716z"/>
  <path opacity="0.9" filter="url(#svg_47_blur)" id="svg_16" fill="#0000bf" d="m382.258,22.7037c0.233,2.2791 0.67,4.0615 1.312,5.3472c0.641,1.2272 1.807,1.8408 3.497,1.8408l0.874,0l0,-29.01511l3.498,0l0,29.01511l0.874,0c1.691,0 2.856,-0.6136 3.498,-1.8408c0.641,-1.2857 1.078,-3.0681 1.311,-5.3472l1.049,-10.6944c0.175,-1.8116 0.408,-3.41871 0.7,-4.82126c0.35,-1.46098 0.816,-2.65899 1.399,-3.59402c0.583,-0.99347 1.311,-1.72396 2.186,-2.19147c0.932,-0.52596 2.069,-0.78893 3.41,-0.78893l0,3.33104c-1.516,0 -2.536,0.70127 -3.06,2.10381c-0.467,1.40255 -0.846,3.38949 -1.137,5.96083l-1.049,10.6944c-0.234,2.2207 -0.671,4.0907 -1.312,5.6102c-0.583,1.461 -1.545,2.5421 -2.885,3.2434c1.515,0.6428 2.594,1.7239 3.235,3.2433c0.699,1.461 1.166,3.3019 1.399,5.5226l1.049,10.782c0.291,2.5714 0.67,4.5583 1.137,5.9608c0.524,1.4026 1.544,2.1039 3.06,2.1039l0,3.331c-1.341,0 -2.477,-0.2338 -3.41,-0.7013c-0.874,-0.5259 -1.603,-1.2564 -2.186,-2.1915c-0.583,-0.9934 -1.049,-2.1914 -1.399,-3.594c-0.291,-1.461 -0.525,-3.0973 -0.699,-4.9089l-1.05,-10.782c-0.233,-2.2792 -0.699,-4.0324 -1.399,-5.2596c-0.699,-1.2272 -1.982,-1.8408 -3.847,-1.8408l-0.874,0l0,29.0151l-3.498,0l0,-29.0151l-0.874,0c-1.865,0 -3.148,0.6136 -3.847,1.8408c-0.7,1.2272 -1.166,2.9804 -1.399,5.2596l-1.049,10.782c-0.35,3.6233 -1.05,6.4284 -2.099,8.4153c-1.049,1.9869 -2.914,2.9804 -5.596,2.9804l0,-3.331c1.516,0 2.507,-0.7013 2.973,-2.1039c0.525,-1.4025 0.933,-3.3894 1.224,-5.9608l1.049,-10.782c0.234,-2.2207 0.671,-4.0616 1.312,-5.5226c0.699,-1.5194 1.807,-2.6005 3.322,-3.2433c-1.34,-0.7013 -2.331,-1.7824 -2.972,-3.2434c-0.583,-1.5195 -0.991,-3.3895 -1.224,-5.6102l-1.05,-10.6944c-0.291,-2.57134 -0.699,-4.55828 -1.224,-5.96083c-0.466,-1.40254 -1.457,-2.10381 -2.973,-2.10381l0,-3.33104c2.682,0 4.547,0.99346 5.596,2.9804c1.05,1.98694 1.749,4.79203 2.099,8.41528l1.049,10.6944z"/>
  <path opacity="0.9" filter="url(#svg_47_blur)" id="svg_17" fill="#0000bf" d="m424.459,4.29529l-10.93,0l0,25.59641l9.181,0l0,3.3311l-9.181,0l0,25.5964l10.93,0l0,3.4187l-14.427,0l0,-61.36131l14.427,0l0,3.4187z"/>
  <path opacity="0.9" filter="url(#svg_47_blur)" id="svg_18" fill="#0000bf" d="m442.906,0.87659l15.738,0l0,3.4187l-12.241,0l0,18.75901l5.247,0c3.089,0 5.304,0.9058 6.645,2.7175c1.399,1.8116 2.098,4.4121 2.098,7.8016l0,18.2331c0,3.3895 -0.699,5.99 -2.098,7.8016c-1.341,1.7532 -3.556,2.6298 -6.645,2.6298l-8.744,0l0,-61.36131zm3.497,25.50881l0,32.5215l5.247,0c1.865,0 3.206,-0.6136 4.022,-1.8409c0.816,-1.2272 1.224,-2.9804 1.224,-5.2595l0,-18.2331c0,-2.2791 -0.408,-4.0323 -1.224,-5.2595c-0.816,-1.2857 -2.157,-1.9285 -4.022,-1.9285l-5.247,0z"/>
  <path opacity="0.9" filter="url(#svg_47_blur)" id="svg_19" fill="#0000bf" d="m464.287,0.87659l3.41,0l5.159,26.29771l2.623,16.4799l2.098,-16.4799l4.547,-26.29771l3.41,0l-8.482,49.08911c-0.291,1.9284 -0.641,3.6524 -1.049,5.1718c-0.349,1.5195 -0.845,2.8051 -1.486,3.857c-0.583,1.0519 -1.37,1.8701 -2.361,2.4545c-0.933,0.5259 -2.157,0.7889 -3.672,0.7889l0,-3.331c0.932,0 1.69,-0.2046 2.273,-0.6136c0.583,-0.4091 1.049,-0.9935 1.399,-1.7532c0.35,-0.8182 0.641,-1.7532 0.874,-2.8051c0.234,-1.1104 0.467,-2.3668 0.7,-3.7693l0.087,-0.789l-9.53,-48.30011z"/>
  <path opacity="0.9" filter="url(#svg_47_blur)" id="svg_20" fill="#0000bf" d="m487.506,0.87659l19.236,0l0,3.4187l-7.869,0l0,57.94261l-3.498,0l0,-57.94261l-7.869,0l0,-3.4187z"/>
  <path opacity="0.9" filter="url(#svg_47_blur)" id="svg_21" fill="#0000bf" d="m514.457,35.9402l-0.263,11.4833l10.755,-43.82948l0.262,-2.71743l3.235,0l0,61.36131l-3.497,0l0,-35.0636l0.262,-11.4833l-10.754,43.8295l-0.263,2.7174l-3.235,0l0,-61.36131l3.498,0l0,35.06361z"/>
  <path opacity="0.9" filter="url(#svg_47_blur)" id="svg_22" fill="#0000bf" d="m563.138,58.8192l7.869,0l0,-57.94261l3.497,0l0,61.36131l-26.231,0l0,-61.36131l3.498,0l0,57.94261l7.869,0l0,-57.94261l3.498,0l0,57.94261z"/>
  <path opacity="0.9" filter="url(#svg_47_blur)" id="svg_23" fill="#0000bf" d="m598.11,51.1052c0.291,2.5714 0.67,4.5583 1.137,5.9608c0.524,1.4026 1.544,2.1039 3.06,2.1039l0,3.331c-1.341,0 -2.478,-0.2338 -3.41,-0.7013c-0.875,-0.5259 -1.603,-1.2564 -2.186,-2.1915c-0.583,-0.9934 -1.049,-2.1914 -1.399,-3.594c-0.291,-1.461 -0.525,-3.0973 -0.7,-4.9089l-1.049,-10.782c-0.233,-2.2792 -0.699,-4.0324 -1.399,-5.2596c-0.699,-1.2272 -1.982,-1.8408 -3.847,-1.8408l-2.623,0l0,29.0151l-3.497,0l0,-61.36131l3.497,0l0,29.01511l2.623,0c1.691,0 2.856,-0.6136 3.498,-1.8408c0.641,-1.2857 1.078,-3.0681 1.311,-5.3472l1.049,-10.6944c0.175,-1.8116 0.408,-3.41871 0.7,-4.82126c0.349,-1.46098 0.816,-2.65899 1.399,-3.59402c0.583,-0.99347 1.311,-1.72396 2.186,-2.19147c0.932,-0.52596 2.069,-0.78893 3.41,-0.78893l0,3.33104c-1.516,0 -2.536,0.70127 -3.061,2.10381c-0.466,1.40255 -0.845,3.38949 -1.136,5.96083l-1.05,10.6944c-0.233,2.2207 -0.67,4.0907 -1.311,5.6102c-0.583,1.461 -1.545,2.5421 -2.885,3.2434c1.515,0.6428 2.594,1.7239 3.235,3.2433c0.699,1.461 1.166,3.3019 1.399,5.5226l1.049,10.782z"/>
  <path opacity="0.9" filter="url(#svg_47_blur)" id="svg_24" fill="#0000bf" d="m609.665,62.2379l-3.497,0l0,-61.36131l3.497,0l0,61.36131z"/>
  <path opacity="0.9" filter="url(#svg_47_blur)" id="svg_25" fill="#0000bf" d="m634.074,62.2379l-17.487,0l0,7.1004l-3.06,0l0,-10.5191c0.757,0 1.399,-0.4675 1.923,-1.4025c0.583,-0.9935 1.05,-2.2499 1.399,-3.7694c0.35,-1.5194 0.612,-3.2141 0.787,-5.0842c0.233,-1.87 0.379,-3.6817 0.437,-5.4348l1.574,-42.25171l14.864,0l0,57.94261l2.623,0l0,10.5191l-3.06,0l0,-7.1004zm-12.503,-19.1096c-0.058,1.4609 -0.175,2.9804 -0.35,4.5582c-0.117,1.5194 -0.321,2.9804 -0.612,4.383c-0.233,1.4025 -0.583,2.6882 -1.049,3.857c-0.467,1.1688 -1.05,2.133 -1.749,2.8927l13.203,0l0,-54.52391l-8.044,0l-1.399,38.83301z"/>
  <path opacity="0.9" filter="url(#svg_47_blur)" id="svg_26" fill="#0000bf" d="m638.114,58.9069c1.865,0 3.177,-0.789 3.935,-2.3668c0.757,-1.5779 1.195,-3.7694 1.311,-6.5744l1.749,-49.08911l14.864,0l0,61.36131l-3.497,0l0,-57.94261l-8.045,0l-1.573,45.67041c-0.117,3.9154 -0.846,6.9542 -2.186,9.1165c-1.283,2.1038 -3.469,3.1557 -6.558,3.1557l0,-3.331z"/>
  <path opacity="0.9" filter="url(#svg_47_blur)" id="svg_27" fill="#0000bf" d="m670.117,35.9402l-0.262,11.4833l10.754,-43.82948l0.263,-2.71743l3.235,0l0,61.36131l-3.498,0l0,-35.0636l0.263,-11.4833l-10.755,43.8295l-0.262,2.7174l-3.235,0l0,-61.36131l3.497,0l0,35.06361z"/>
  <path opacity="0.9" filter="url(#svg_47_blur)" id="svg_28" fill="#0000bf" d="m699.528,0.87659c2.798,0 4.809,0.75971 6.033,2.27914c1.224,1.46098 1.836,3.59402 1.836,6.39911l0,14.90206c0,3.5648 -1.166,5.9316 -3.497,7.1004c2.914,1.1687 4.371,3.7985 4.371,7.8893l0,13.1488c0,3.1557 -0.699,5.5518 -2.098,7.1881c-1.341,1.6363 -3.556,2.4544 -6.645,2.4544l-8.744,0l0,-61.36131l8.744,0zm-5.247,32.34621l0,25.6841l5.247,0c1.865,0 3.206,-0.526 4.022,-1.5779c0.816,-1.1103 1.224,-2.6882 1.224,-4.7336l0,-13.1488c0,-2.0454 -0.408,-3.5941 -1.224,-4.646c-0.816,-1.0519 -2.157,-1.5778 -4.022,-1.5778l-5.247,0zm0,-29.01517l0,25.68407l5.247,0c2.914,0 4.372,-1.8116 4.372,-5.4348l0,-14.90206c0,-3.56481 -1.458,-5.34721 -4.372,-5.34721l-5.247,0z"/>
  <path opacity="0.9" filter="url(#svg_47_blur)" id="svg_29" fill="#0000bf" d="m718.19,35.9402l-0.263,11.4833l10.755,-43.82948l0.262,-2.71743l3.236,0l0,61.36131l-3.498,0l0,-35.0636l0.262,-11.4833l-10.754,43.8295l-0.263,2.7174l-3.235,0l0,-61.36131l3.498,0l0,35.06361z"/>
  <path opacity="0.9" filter="url(#svg_47_blur)" id="svg_30" fill="#0000bf" d="m753.109,50.7546l-3.497,0l-7.695,-39.5342l0.437,11.4833l0,39.5342l-3.497,0l0,-61.36131l3.497,0l6.383,28.22621l2.623,17.0059l2.623,-17.0059l6.383,-28.22621l3.498,0l0,61.36131l-3.498,0l0,-39.5342l0.437,-11.4833l-7.694,39.5342z"/>
  <path opacity="0.9" filter="url(#svg_47_blur)" id="svg_31" fill="#0000bf" d="m801.347,62.2379l-17.487,0l0,7.1004l-3.06,0l0,-10.5191c0.757,0 1.399,-0.4675 1.923,-1.4025c0.583,-0.9935 1.049,-2.2499 1.399,-3.7694c0.35,-1.5194 0.612,-3.2141 0.787,-5.0842c0.233,-1.87 0.379,-3.6817 0.437,-5.4348l1.574,-42.25171l14.864,0l0,57.94261l2.623,0l0,10.5191l-3.06,0l0,-7.1004zm-12.503,-19.1096c-0.059,1.4609 -0.175,2.9804 -0.35,4.5582c-0.117,1.5194 -0.321,2.9804 -0.612,4.383c-0.233,1.4025 -0.583,2.6882 -1.049,3.857c-0.467,1.1688 -1.049,2.133 -1.749,2.8927l13.203,0l0,-54.52391l-8.044,0l-1.399,38.83301z"/>
  <path opacity="0.9" filter="url(#svg_47_blur)" id="svg_32" fill="#0000bf" d="m805.387,58.9069c1.865,0 3.177,-0.789 3.935,-2.3668c0.757,-1.5779 1.194,-3.7694 1.311,-6.5744l1.749,-49.08911l14.864,0l0,61.36131l-3.497,0l0,-57.94261l-8.045,0l-1.574,45.67041c-0.116,3.9154 -0.845,6.9542 -2.185,9.1165c-1.283,2.1038 -3.469,3.1557 -6.558,3.1557l0,-3.331z"/>
  <path opacity="0.9" filter="url(#svg_47_blur)" id="svg_33" fill="#0000bf" d="m842.461,0.87659l8.307,0l0,61.36131l-3.498,0l0,-25.5964l-4.022,0l-7.607,25.5964l-3.585,0l7.607,-25.8594c-3.963,-0.9935 -5.945,-4.4122 -5.945,-10.2561l0,-14.8144c0,-3.38947 0.67,-5.9608 2.011,-7.71398c1.399,-1.81162 3.643,-2.71743 6.732,-2.71743zm-5.246,10.43141l0,14.8144c0,2.2791 0.408,4.0615 1.224,5.3472c0.816,1.2272 2.157,1.8408 4.022,1.8408l4.809,0l0,-29.10277l-4.809,0c-1.865,0 -3.206,0.61362 -4.022,1.84084c-0.816,1.22723 -1.224,2.98041 -1.224,5.25953z"/>
  <path opacity="0.9" filter="url(#svg_47_blur)" id="svg_34" fill="#0000bf" d="m879.267,0.87659c2.798,0 4.809,0.75971 6.033,2.27914c1.224,1.46098 1.836,3.59402 1.836,6.39911l0,14.90206c0,3.5648 -1.165,5.9316 -3.497,7.1004c2.914,1.1687 4.372,3.7985 4.372,7.8893l0,13.1488c0,3.1557 -0.7,5.5518 -2.099,7.1881c-1.34,1.6363 -3.555,2.4544 -6.645,2.4544l-8.744,0l0,-61.36131l8.744,0zm-5.246,32.34621l0,25.6841l5.246,0c1.865,0 3.206,-0.526 4.022,-1.5779c0.816,-1.1103 1.224,-2.6882 1.224,-4.7336l0,-13.1488c0,-2.0454 -0.408,-3.5941 -1.224,-4.646c-0.816,-1.0519 -2.157,-1.5778 -4.022,-1.5778l-5.246,0zm0,-29.01517l0,25.68407l5.246,0c2.915,0 4.372,-1.8116 4.372,-5.4348l0,-14.90206c0,-3.56481 -1.457,-5.34721 -4.372,-5.34721l-5.246,0z"/>
  <path opacity="0.9" filter="url(#svg_47_blur)" id="svg_35" fill="#0000bf" d="m909.034,50.7546l-11.28,0l-1.574,11.4833l-3.584,0l9.093,-61.44897l3.497,0l9.094,61.44897l-3.585,0l-1.661,-11.4833zm-10.755,-3.3311l10.317,0l-2.535,-17.7947l-2.623,-20.59992l-2.623,20.59992l-2.536,17.7947z"/>
  <path opacity="0.9" filter="url(#svg_47_blur)" id="svg_36" fill="#0000bf" d="m933.973,58.8192l7.869,0l0,-57.94261l3.497,0l0,61.36131l-26.23,0l0,-61.36131l3.497,0l0,57.94261l7.869,0l0,-57.94261l3.498,0l0,57.94261z"/>
  <path opacity="0.9" filter="url(#svg_47_blur)" id="svg_37" fill="#0000bf" d="m951.808,9.55484c0,-3.15573 0.67,-5.52252 2.011,-7.10039c1.399,-1.6363 3.643,-2.45445 6.732,-2.45445c3.09,0 5.305,0.81815 6.645,2.45445c1.399,1.57787 2.099,3.94466 2.099,7.10039l0,43.91716c0,3.1557 -0.7,5.5518 -2.099,7.1881c-1.34,1.6363 -3.555,2.4544 -6.645,2.4544c-3.089,0 -5.333,-0.8181 -6.732,-2.4544c-1.341,-1.6363 -2.011,-4.0324 -2.011,-7.1881l0,-43.91716zm3.497,43.91716c0,2.0454 0.408,3.6233 1.224,4.7336c0.816,1.0519 2.157,1.5779 4.022,1.5779c1.866,0 3.206,-0.526 4.022,-1.5779c0.816,-1.1103 1.224,-2.6882 1.224,-4.7336l0,-43.91716c0,-2.04538 -0.408,-3.59403 -1.224,-4.64593c-0.816,-1.05191 -2.156,-1.57787 -4.022,-1.57787c-1.865,0 -3.206,0.52596 -4.022,1.57787c-0.816,1.0519 -1.224,2.60055 -1.224,4.64593l0,43.91716z"/>
  <path opacity="0.9" filter="url(#svg_47_blur)" id="svg_38" fill="#0000bf" d="m989.795,4.29529l-10.492,0l0,57.94261l-3.498,0l0,-61.36131l13.99,0l0,3.4187z"/>
  <path opacity="0.9" filter="url(#svg_47_blur)" id="svg_39" fill="#0000bf" d="m993.818,9.55484c0,-3.15573 0.67,-5.52252 2.011,-7.10039c1.399,-1.6363 3.643,-2.45445 6.731,-2.45445c3.09,0 5.31,0.81815 6.65,2.45445c1.4,1.57787 2.1,3.94466 2.1,7.10039l0,43.91716c0,3.1557 -0.7,5.5518 -2.1,7.1881c-1.34,1.6363 -3.56,2.4544 -6.65,2.4544c-3.088,0 -5.332,-0.8181 -6.731,-2.4544c-1.341,-1.6363 -2.011,-4.0324 -2.011,-7.1881l0,-43.91716zm3.497,43.91716c0,2.0454 0.409,3.6233 1.225,4.7336c0.816,1.0519 2.16,1.5779 4.02,1.5779c1.87,0 3.21,-0.526 4.02,-1.5779c0.82,-1.1103 1.23,-2.6882 1.23,-4.7336l0,-43.91716c0,-2.04538 -0.41,-3.59403 -1.23,-4.64593c-0.81,-1.05191 -2.15,-1.57787 -4.02,-1.57787c-1.86,0 -3.204,0.52596 -4.02,1.57787c-0.816,1.0519 -1.225,2.60055 -1.225,4.64593l0,43.91716z"/>
  <path opacity="0.9" filter="url(#svg_47_blur)" id="svg_40" fill="#0000bf" d="m1038.14,29.8917c1.86,0 3.2,-0.6136 4.02,-1.8408c0.81,-1.2272 1.22,-2.9804 1.22,-5.2595l0,-13.23656c0,-2.04538 -0.41,-3.59403 -1.22,-4.64593c-0.82,-1.05191 -2.16,-1.57787 -4.02,-1.57787c-1.87,0 -3.21,0.52596 -4.03,1.57787c-0.81,1.0519 -1.22,2.60055 -1.22,4.64593l0,8.85356l-3.5,0l0,-8.85356c0,-3.15573 0.67,-5.52252 2.01,-7.10039c1.4,-1.6363 3.65,-2.45445 6.74,-2.45445c3.08,0 5.3,0.81815 6.64,2.45445c1.4,1.57787 2.1,3.94466 2.1,7.10039l0,13.23656c0,4.5582 -1.46,7.4802 -4.37,8.7659c2.91,1.2856 4.37,4.2076 4.37,8.7659l0,13.1488c0,3.1557 -0.7,5.5518 -2.1,7.1881c-1.34,1.6363 -3.56,2.4544 -6.64,2.4544c-3.09,0 -5.34,-0.8181 -6.74,-2.4544c-1.34,-1.6363 -2.01,-4.0324 -2.01,-7.1881l0,-8.7659l3.5,0l0,8.7659c0,2.0454 0.41,3.6233 1.22,4.7336c0.82,1.0519 2.16,1.5779 4.03,1.5779c1.86,0 3.2,-0.526 4.02,-1.5779c0.81,-1.1103 1.22,-2.6882 1.22,-4.7336l0,-13.1488c0,-2.2792 -0.41,-4.0324 -1.22,-5.2596c-0.82,-1.2272 -2.16,-1.8408 -4.02,-1.8408l-4.38,0l0,-3.3311l4.38,0z"/>
  <path opacity="0.9" filter="url(#svg_47_blur)" id="svg_41" fill="#0000bf" d="m1071,62.2379l-17.49,0l0,7.1004l-3.06,0l0,-10.5191c0.76,0 1.4,-0.4675 1.93,-1.4025c0.58,-0.9935 1.04,-2.2499 1.39,-3.7694c0.35,-1.5194 0.62,-3.2141 0.79,-5.0842c0.23,-1.87 0.38,-3.6817 0.44,-5.4348l1.57,-42.25171l14.87,0l0,57.94261l2.62,0l0,10.5191l-3.06,0l0,-7.1004zm-12.5,-19.1096c-0.06,1.4609 -0.18,2.9804 -0.35,4.5582c-0.12,1.5194 -0.32,2.9804 -0.62,4.383c-0.23,1.4025 -0.58,2.6882 -1.05,3.857c-0.46,1.1688 -1.04,2.133 -1.74,2.8927l13.2,0l0,-54.52391l-8.05,0l-1.39,38.83301z"/>
  <path opacity="0.9" filter="url(#svg_47_blur)" id="svg_42" fill="#0000bf" d="m1077.92,9.55484c0,-3.15573 0.67,-5.52252 2.02,-7.10039c1.39,-1.6363 3.64,-2.45445 6.73,-2.45445c3.09,0 5.3,0.81815 6.64,2.45445c1.4,1.57787 2.1,3.94466 2.1,7.10039l0,43.91716c0,3.1557 -0.7,5.5518 -2.1,7.1881c-1.34,1.6363 -3.55,2.4544 -6.64,2.4544c-3.09,0 -5.34,-0.8181 -6.73,-2.4544c-1.35,-1.6363 -2.02,-4.0324 -2.02,-7.1881l0,-43.91716zm3.5,43.91716c0,2.0454 0.41,3.6233 1.23,4.7336c0.81,1.0519 2.15,1.5779 4.02,1.5779c1.86,0 3.2,-0.526 4.02,-1.5779c0.82,-1.1103 1.22,-2.6882 1.22,-4.7336l0,-43.91716c0,-2.04538 -0.4,-3.59403 -1.22,-4.64593c-0.82,-1.05191 -2.16,-1.57787 -4.02,-1.57787c-1.87,0 -3.21,0.52596 -4.02,1.57787c-0.82,1.0519 -1.23,2.60055 -1.23,4.64593l0,43.91716z"/>
  <path opacity="0.9" filter="url(#svg_47_blur)" id="svg_43" fill="#0000bf" d="m1101.92,0.87659l8.75,0c3.09,0 5.3,0.90581 6.64,2.71743c1.4,1.75318 2.1,4.32451 2.1,7.71398l0,18.2331c0,3.3895 -0.7,5.99 -2.1,7.8017c-1.34,1.8116 -3.55,2.7174 -6.64,2.7174l-5.25,0l0,22.1777l-3.5,0l0,-61.36131zm3.5,3.33104l0,32.52147l5.25,0c1.86,0 3.2,-0.6136 4.02,-1.8408c0.81,-1.2857 1.22,-3.0681 1.22,-5.3472l0,-18.2331c0,-2.27912 -0.41,-4.0323 -1.22,-5.25953c-0.82,-1.22722 -2.16,-1.84084 -4.02,-1.84084l-5.25,0z"/>
  <path opacity="0.9" filter="url(#svg_47_blur)" id="svg_44" fill="#0000bf" d="m1124.89,9.55484c0,-3.15573 0.67,-5.52252 2.01,-7.10039c1.4,-1.6363 3.64,-2.45445 6.73,-2.45445c3.09,0 5.3,0.81815 6.65,2.45445c1.39,1.57787 2.09,3.94466 2.09,7.10039l0,43.91716c0,3.1557 -0.7,5.5518 -2.09,7.1881c-1.35,1.6363 -3.56,2.4544 -6.65,2.4544c-3.09,0 -5.33,-0.8181 -6.73,-2.4544c-1.34,-1.6363 -2.01,-4.0324 -2.01,-7.1881l0,-43.91716zm3.49,43.91716c0,2.0454 0.41,3.6233 1.23,4.7336c0.81,1.0519 2.16,1.5779 4.02,1.5779c1.87,0 3.21,-0.526 4.02,-1.5779c0.82,-1.1103 1.23,-2.6882 1.23,-4.7336l0,-43.91716c0,-2.04538 -0.41,-3.59403 -1.23,-4.64593c-0.81,-1.05191 -2.15,-1.57787 -4.02,-1.57787c-1.86,0 -3.21,0.52596 -4.02,1.57787c-0.82,1.0519 -1.23,2.60055 -1.23,4.64593l0,43.91716z"/>
  <path opacity="0.9" filter="url(#svg_47_blur)" id="svg_45" fill="#0000bf" d="m1157.63,0.87659c2.8,0 4.81,0.75971 6.03,2.27914c1.23,1.46098 1.84,3.59402 1.84,6.39911l0,14.90206c0,3.5648 -1.17,5.9316 -3.5,7.1004c2.91,1.1687 4.37,3.7985 4.37,7.8893l0,13.1488c0,3.1557 -0.7,5.5518 -2.1,7.1881c-1.34,1.6363 -3.55,2.4544 -6.64,2.4544l-8.75,0l0,-61.36131l8.75,0zm-5.25,32.34621l0,25.6841l5.25,0c1.86,0 3.2,-0.526 4.02,-1.5779c0.82,-1.1103 1.22,-2.6882 1.22,-4.7336l0,-13.1488c0,-2.0454 -0.4,-3.5941 -1.22,-4.646c-0.82,-1.0519 -2.16,-1.5778 -4.02,-1.5778l-5.25,0zm0,-29.01517l0,25.68407l5.25,0c2.91,0 4.37,-1.8116 4.37,-5.4348l0,-14.90206c0,-3.56481 -1.46,-5.34721 -4.37,-5.34721l-5.25,0z"/>
  <path opacity="0.9" filter="url(#svg_47_blur)" id="svg_46" fill="#0000bf" d="m1175.5,16.6552l-1.75,0l-1.31,-15.77861l4.38,0l-1.32,15.77861z"/>
  <path opacity="0.9" filter="url(#svg_47_blur)" id="svg_47" fill="#0000bf" d="m1191.69,0.87659l8.31,0l0,61.36131l-3.5,0l0,-25.5964l-4.02,0l-7.61,25.5964l-3.58,0l7.61,-25.8594c-3.97,-0.9935 -5.95,-4.4122 -5.95,-10.2561l0,-14.8144c0,-3.38947 0.67,-5.9608 2.01,-7.71398c1.4,-1.81162 3.64,-2.71743 6.73,-2.71743zm-5.24,10.43141l0,14.8144c0,2.2791 0.41,4.0615 1.22,5.3472c0.82,1.2272 2.16,1.8408 4.02,1.8408l4.81,0l0,-29.10277l-4.81,0c-1.86,0 -3.2,0.61362 -4.02,1.84084c-0.81,1.22723 -1.22,2.98041 -1.22,5.25953z"/>
 </g>
</svg>